<?xml version="1.0" encoding="UTF-8"?>
<svg id="Capa_1" data-name="Capa 1" xmlns="http://www.w3.org/2000/svg" viewBox="0 0 500 500">
  <defs>
    <style>
      .cls-1 {
        fill: #fff;
      }
    </style>
  </defs>
  <path class="cls-1" d="M79.09,148.5c.2-1.07,2.06-3.73,3.03-4.5,3.43-2.73,11.7-6.76,16-9.24,45.16-26.1,91.34-52.19,137.26-77.07,3.08-1.67,11.7-7.04,14.51-7.28,4.07-.35,9.13,3.14,12.71,5.02,53.25,27.86,104.67,59.18,157.1,88.35l2.67,3.71.42,156.75s0-.42,0,0c.01,5.21-31.18,18.92-37.52,18.63v-154.58c0-.26-.92-1.86-1.2-2.26-43.51-25.53-88.21-49.81-132.44-74.31l-3.08.43-129.87,73.44-1.2,4.38-.07,125.97c-6.6,3.82-13.55,7.08-20.03,11.1-6.29,3.89-12.04,8.53-18.29,12.45v-170.97Z"/>
  <path class="cls-1" d="M421.8,320.96c-3.66,10.75-15.19,17.52-25.03,23.06-35.73,20.15-78.31,29.84-119.77,22.54-36.76-6.48-69-26.56-107.96-18.19-19.54,4.2-35.69,14.89-50.71,26.84-15.7-8.52-35.36-15.14-41.13-33.07.02-1.26,6.32-6.16,7.78-7.34,41.76-33.69,86.01-43.08,138.24-24.44,28.85,10.3,53.33,22.8,84.39,28.51,39.68,7.29,79.66,2.05,114.18-17.91Z"/>
  <path class="cls-1" d="M417.6,345.27c-.91,9.83-9.08,16.69-16.97,22.17-43.29,30.02-95.7,52.91-141.12,80.23-4.34,1.98-6,2.76-10.75.89l-116.92-65.13c7.5-6.18,16.25-11.82,25.4-15.64,47.45-19.81,84.58,9.12,130.46,13.59,46.69,4.55,91.9-11.99,129.9-36.1Z"/>
  <path class="cls-1" d="M337.15,324.92c-8.71-.53-17.44-1.56-25.85-3.74l-.26-93.47c-.88-1.34-2.19-1.41-3.51-.49l-53.26,36.34c-3.18,1.88-5.44.88-8.2-.69-16.42-9.31-32.45-23.18-48.61-33.37-1.67-1.06-6.18-4.8-6.79-1.52-.68,3.67.02,6.77.03,10.14,0,13.55,1,29.18,0,42.44-.07.95-.19,1.86-.56,2.75-.74.98-13.02-.81-15.35-.83-3.6-.02-6.93.89-10.53.59v-108.8c0-1.92,4.95-4.35,6.82-2.46,25.36,15.74,49.24,35.84,74.64,51.25,2.4,1.46,4.53,3.66,7.49,1.61l76.56-52.26c2.41-2.48,7.39-.58,7.39,2.43v150.06Z"/>
</svg>