<?xml version="1.0" encoding="UTF-8"?>
<svg id="Capa_1" data-name="Capa 1" xmlns="http://www.w3.org/2000/svg" viewBox="0 0 1000 500">
  <defs>
    <style>
      .cls-1 {
        fill: #fff;
      }
    </style>
  </defs>
  <g>
    <path class="cls-1" d="M85.84,187.71c.12-.66,1.26-2.29,1.86-2.76,2.11-1.67,7.18-4.15,9.82-5.67,27.72-16.02,56.06-32.03,84.24-47.3,1.89-1.02,7.18-4.32,8.91-4.47,2.5-.22,5.6,1.93,7.8,3.08,32.68,17.09,64.23,36.32,96.41,54.22l1.64,2.27.26,96.19s0-.26,0,0c0,3.2-19.14,11.61-23.03,11.43v-94.86c0-.16-.56-1.14-.74-1.39-26.7-15.67-54.13-30.57-81.27-45.6l-1.89.26-79.7,45.07-.74,2.69-.04,77.31c-4.05,2.35-8.31,4.35-12.29,6.81s-7.39,5.23-11.23,7.64v-104.92Z"/>
    <path class="cls-1" d="M296.16,293.55c-2.24,6.6-9.32,10.75-15.36,14.15-21.93,12.37-48.06,18.32-73.5,13.83-22.56-3.97-42.35-16.3-66.25-11.16-11.99,2.58-21.9,9.14-31.12,16.47-9.64-5.23-21.7-9.29-25.24-20.29.01-.77,3.88-3.78,4.78-4.51,25.63-20.68,52.78-26.44,84.84-15,17.7,6.32,32.72,13.99,51.79,17.49,24.35,4.47,48.89,1.26,70.07-10.99Z"/>
    <path class="cls-1" d="M293.58,308.46c-.56,6.03-5.57,10.24-10.41,13.6-26.56,18.42-58.73,32.47-86.6,49.23-2.66,1.22-3.69,1.69-6.6.54l-71.75-39.97c4.61-3.79,9.97-7.26,15.59-9.6,29.12-12.16,51.91,5.6,80.06,8.34,28.65,2.79,56.39-7.36,79.71-22.15Z"/>
    <path class="cls-1" d="M244.21,295.98c-5.34-.32-10.71-.96-15.86-2.29l-.16-57.36c-.54-.82-1.35-.87-2.15-.3l-32.68,22.3c-1.95,1.16-3.34.54-5.03-.42-10.07-5.71-19.92-14.22-29.83-20.48-1.03-.65-3.79-2.94-4.17-.93-.42,2.25.01,4.16.02,6.23,0,8.31.61,17.9,0,26.05-.04.58-.12,1.14-.34,1.69-.46.6-7.99-.5-9.42-.51-2.21-.01-4.25.55-6.47.36v-66.77c0-1.18,3.04-2.67,4.19-1.51,15.56,9.66,30.22,22,45.8,31.45,1.47.89,2.78,2.25,4.6.99l46.99-32.07c1.48-1.52,4.53-.35,4.53,1.49v92.09Z"/>
  </g>
  <g>
    <polygon class="cls-1" points="354.17 316.35 354.17 181.71 379.44 181.71 435.87 269.28 492.73 181.71 517.56 181.71 517.56 316.35 492.29 316.35 492.29 223.98 440.44 303.71 429.11 303.71 378.14 223.98 378.14 316.35 354.17 316.35"/>
    <polygon class="cls-1" points="559.39 316.35 633.02 181.71 659.6 181.71 730.62 316.35 702.3 316.35 645.01 208.29 586.84 316.35 559.39 316.35"/>
    <polygon class="cls-1" points="623.44 305.45 645.01 264.06 665.7 305.45 623.44 305.45"/>
    <path class="cls-1" d="M775.93,249.03v67.32h24.4v-42.7l53.59-.44,31.81,43.13h29.63l-33.55-45.75h0c15.64,0,28.32-12.68,28.32-28.32v-32.24c0-15.64-12.68-28.32-28.32-28.32h-105.88v23.96l99.54-.38c7.58-.03,13.75,6.11,13.75,13.69v16.35c0,7.56-6.13,13.69-13.69,13.69h-99.59Z"/>
  </g>
</svg>