<?xml version="1.0" encoding="UTF-8"?>
<svg id="Capa_1" data-name="Capa 1" xmlns="http://www.w3.org/2000/svg" viewBox="0 0 1500 500">
  <defs>
    <style>
      .cls-1 {
        letter-spacing: .38em;
      }

      .cls-2 {
        letter-spacing: .38em;
      }

      .cls-3 {
        letter-spacing: .39em;
      }

      .cls-4 {
        letter-spacing: .42em;
      }

      .cls-5 {
        letter-spacing: .36em;
      }

      .cls-6 {
        font-family: Orbitron-Bold, Orbitron;
        font-size: 124.62px;
        font-variation-settings: 'wght' 700;
        font-weight: 700;
      }

      .cls-7 {
        letter-spacing: .38em;
      }

      .cls-8 {
        font-family: Bahnschrift, Bahnschrift;
        font-size: 38.92px;
        font-variation-settings: 'wght' 400, 'wdth' 100;
      }

      .cls-9 {
        letter-spacing: .37em;
      }

      .cls-10 {
        letter-spacing: .42em;
      }

      .cls-11 {
        letter-spacing: .4em;
      }
    </style>
  </defs>
  <g>
    <g id="ARC">
      <path d="M351.93,109.21c-77.76-65.25-193.68-55.1-258.93,22.65-65.25,77.76-55.1,193.68,22.65,258.93,68.32,57.33,167.95,57.33,236.27,0,0,0-19.69-23.46-19.69-23.46-56.94,47.78-139.96,47.78-196.89,0-64.8-54.37-73.25-150.98-18.88-215.77,54.37-64.8,150.98-73.25,215.77-18.88,0,0,19.69-23.46,19.69-23.46Z"/>
    </g>
    <g id="ARC-2" data-name="ARC">
      <path d="M389.26,348.02c-5.37,8.52-11.44,16.59-18.14,24.12-9.32-7.05-17.8-15.14-25.28-24.12,0,0,43.41,0,43.41,0Z"/>
    </g>
    <g id="ARC-3" data-name="ARC">
      <path d="M312.34,274.51c-1.31-8.1-1.97-16.3-1.97-24.51,0,0,107.21,0,107.21,0,0,8.2-.55,16.38-1.64,24.51,0,0-103.6,0-103.6,0Z"/>
    </g>
    <g id="ARC-4" data-name="ARC">
      <path d="M329.17,323.52h73.07c3.47-7.95,6.37-16.14,8.69-24.51,0,0-92.5,0-92.5,0,2.86,8.47,6.45,16.67,10.74,24.51Z"/>
    </g>
    <g id="LINE">
      <path d="M264.41,250.82l135.95-78.49-147.51,53.69c-13.24-10.52-32.51-8.32-43.04,4.93-10.52,13.24-8.32,32.51,4.93,43.04,13.24,10.52,32.51,8.32,43.04-4.93,4.13-5.2,6.46-11.6,6.64-18.24Z"/>
    </g>
  </g>
  <g>
    <text class="cls-6" transform="translate(501.29 250)"><tspan x="0" y="0">OPEN GAUGE</tspan></text>
    <g>
      <text class="cls-8" transform="translate(501.29 328.31)"><tspan class="cls-11" x="0" y="0">ME</tspan><tspan class="cls-5" x="84.73" y="0">A</tspan><tspan class="cls-2" x="123.97" y="0">S</tspan><tspan class="cls-3" x="162.75" y="0">U</tspan><tspan class="cls-11" x="203.44" y="0">RE</tspan></text>
      <text class="cls-8" transform="translate(857.14 328.31)"><tspan class="cls-9" x="0" y="0">C</tspan><tspan class="cls-11" x="38.51" y="0">ALIB</tspan><tspan class="cls-1" x="184.13" y="0">R</tspan><tspan class="cls-7" x="224.12" y="0">A</tspan><tspan class="cls-10" x="264.12" y="0">T</tspan><tspan class="cls-11" x="299.19" y="0">E</tspan></text>
      <text class="cls-8" transform="translate(1275.79 328.31)"><tspan class="cls-4" x="0" y="0">T</tspan><tspan class="cls-2" x="35.07" y="0">RU</tspan><tspan class="cls-11" x="115.56" y="0">ST</tspan></text>
    </g>
  </g>
</svg>