<?xml version="1.0" encoding="UTF-8"?>
<svg id="Capa_1" data-name="Capa 1" xmlns="http://www.w3.org/2000/svg" viewBox="0 0 500 500">
  <defs>
    <style>
      .cls-1 {
        fill: #fff;
      }
    </style>
  </defs>
  <g id="ARC">
    <path class="cls-1" d="M394.63,77.64C299.44-2.23,157.52,10.19,77.64,105.38-2.23,200.57,10.19,342.49,105.38,422.36c83.64,70.19,205.61,70.19,289.25,0,0,0-24.1-28.73-24.1-28.73-69.7,58.49-171.34,58.49-241.04,0-79.33-66.56-89.67-184.83-23.11-264.15,66.56-79.33,184.83-89.67,264.15-23.11,0,0,24.1-28.73,24.1-28.73Z"/>
  </g>
  <g id="ARC-2" data-name="ARC">
    <path class="cls-1" d="M440.33,370c-6.58,10.43-14.01,20.31-22.2,29.53-11.41-8.63-21.79-18.54-30.94-29.53,0,0,53.15,0,53.15,0Z"/>
  </g>
  <g id="ARC-3" data-name="ARC">
    <path class="cls-1" d="M346.17,280c-1.61-9.92-2.42-19.95-2.42-30,0,0,131.25,0,131.25,0,0,10.03-.67,20.06-2.01,30,0,0-126.82,0-126.82,0Z"/>
  </g>
  <g id="ARC-4" data-name="ARC">
    <path class="cls-1" d="M366.76,340h89.45c4.25-9.74,7.8-19.76,10.64-30,0,0-113.24,0-113.24,0,3.5,10.36,7.9,20.4,13.15,30Z"/>
  </g>
  <g id="LINE">
    <path class="cls-1" d="M287.49,251l166.43-96.09-180.59,65.73c-16.21-12.88-39.8-10.18-52.69,6.03-12.88,16.21-10.18,39.8,6.03,52.69,16.21,12.88,39.8,10.18,52.69-6.03,5.06-6.37,7.91-14.2,8.13-22.33Z"/>
  </g>
</svg>